<svg xmlns="http://www.w3.org/2000/svg" viewBox="0 0 1139 1706">
<style>
  .bg { fill: #f0ede8; }
  path { fill: #44403c; }
  @media (prefers-color-scheme: dark) {
    .bg { fill: #292524; }
    path { fill: #e5e5e5; }
  }
</style>
<circle class="bg" cx="570" cy="853" r="570" />
<g transform="translate(0,1706) scale(0.1,-0.1)" stroke="none">
<path d="M2 12868 c1 -2306 3 -4159 5 -4118 16 466 94 983 222 1480 58 226 73
278 141 481 259 776 627 1489 1195 2309 185 268 550 734 795 1015 488 559
1233 1305 1705 1706 22 19 42 36 45 39 11 11 99 88 150 132 30 25 125 105 210
178 392 334 1191 960 1224 960 11 0 286 -206 456 -340 46 -36 117 -91 158
-123 42 -31 90 -70 106 -85 17 -15 63 -52 101 -82 100 -77 271 -217 371 -302
738 -629 1234 -1101 1848 -1758 308 -330 803 -936 1031 -1263 176 -253 385
-563 385 -572 0 -3 19 -35 43 -72 24 -38 85 -142 137 -233 51 -91 111 -196
132 -235 40 -70 238 -468 238 -478 0 -3 17 -43 39 -89 53 -115 101 -225 101
-233 0 -4 7 -21 15 -38 63 -138 207 -561 265 -782 69 -261 82 -318 125 -530
74 -372 120 -725 134 -1042 4 -92 9 1730 9 4050 l2 4217 -5695 0 -5695 0 2
-4192z M5130 15710 c-113 -94 -225 -188 -249 -208 -24 -20 -57 -48 -74 -62
-93 -77 -450 -393 -533 -473 -96 -94 -97 -94 -110 -163 -19 -97 -18 -388 1
-500 42 -242 136 -461 303 -703 58 -84 197 -260 226 -286 6 -5 26 -28 45 -50
19 -22 68 -76 110 -121 153 -162 345 -392 434 -521 l52 -74 3 836 c1 460 1
1210 0 1666 l-3 830 -205 -171z M6040 14218 l1 -1663 22 30 c127 173 291 364
523 614 479 516 672 934 651 1415 -3 72 -11 158 -18 191 -14 73 -26 87 -274
308 -99 88 -205 183 -235 210 -61 55 -490 412 -641 535 l-29 23 0 -1663z
M3415 14138 c-22 -24 -87 -95 -145 -158 -221 -241 -375 -418 -538 -619 -112
-139 -112 -139 -137 -336 -25 -205 -27 -293 -11 -452 35 -343 124 -646 274
-933 104 -199 293 -438 613 -772 375 -390 447 -470 534 -585 21 -29 43 -53 47
-53 4 0 8 12 8 28 0 30 68 307 95 387 118 346 298 661 581 1010 111 137 109
133 94 224 -22 127 -84 271 -166 388 -51 71 -128 162 -304 359 -440 492 -643
781 -763 1084 -30 76 -89 282 -112 393 -9 42 -20 77 -24 77 -4 0 -25 -19 -46
-42z M7906 14138 c-12 -74 -56 -239 -92 -347 -120 -351 -343 -674 -849 -1227
-144 -157 -253 -298 -309 -398 -52 -93 -95 -224 -102 -309 l-7 -72 83 -105
c240 -306 351 -471 445 -665 118 -244 207 -510 249 -747 7 -38 20 -49 29 -25
6 17 120 157 197 242 35 39 176 187 315 330 261 269 325 341 437 485 233 302
396 661 462 1015 51 277 56 535 17 779 -22 134 -25 140 -151 291 -245 293
-404 474 -566 645 -45 47 -94 100 -109 118 -16 17 -31 32 -35 32 -4 0 -10 -19
-14 -42z M1821 12111 c-167 -271 -424 -740 -483 -886 -10 -22 -46 -107 -82
-189 -127 -286 -164 -447 -173 -741 -16 -540 134 -1082 424 -1540 169 -266
279 -402 538 -661 228 -229 291 -283 910 -783 72 -58 159 -130 195 -161 36
-31 101 -86 145 -124 166 -141 417 -400 562 -581 79 -99 149 -182 154 -183 6
-3 8 386 6 1045 -3 921 -5 1064 -20 1178 -55 414 -163 738 -355 1063 -143 240
-297 436 -548 692 -368 377 -472 492 -610 676 -267 358 -452 763 -544 1192
-15 74 -30 135 -32 137 -1 1 -41 -59 -87 -134z M9466 12230 c-3 -14 -15 -70
-27 -125 -63 -304 -193 -646 -337 -890 -164 -279 -335 -486 -738 -899 -406
-415 -574 -641 -749 -1011 -102 -214 -164 -416 -204 -662 -40 -240 -42 -315
-39 -1368 l3 -1020 61 80 c77 100 264 313 375 426 192 196 307 295 729 634
296 238 315 254 517 429 137 119 360 338 473 465 352 395 579 810 689 1261 61
249 81 415 81 665 0 255 -16 373 -79 575 -96 311 -414 943 -692 1375 -51 79
-58 87 -63 65z M5648 11663 c-66 -99 -176 -240 -313 -404 -227 -271 -349 -450
-417 -612 -90 -215 -130 -358 -170 -602 l-23 -140 -2 -3713 -3 -3714 -32 7
c-134 30 -571 190 -858 315 -772 336 -1546 865 -2119 1448 -362 370 -668 767
-921 1197 -107 183 -304 583 -373 760 -218 559 -351 1144 -397 1740 -6 77 -12
158 -13 180 -2 22 -4 -1797 -5 -4042 l-2 -4083 5695 0 5695 0 -2 4143 c-1
2278 -3 4117 -5 4087 -19 -356 -44 -591 -93 -875 -50 -293 -74 -392 -160 -675
-147 -485 -321 -884 -555 -1270 -28 -47 -58 -96 -66 -109 -88 -150 -243 -369
-374 -530 -55 -68 -109 -135 -120 -150 -111 -148 -553 -592 -743 -747 -13 -10
-38 -32 -55 -47 -134 -119 -499 -386 -707 -517 -204 -129 -499 -299 -647 -373
-50 -26 -126 -67 -168 -92 -42 -25 -78 -45 -80 -45 -2 0 -23 -13 -47 -28 -24
-16 -70 -46 -103 -68 -533 -344 -950 -859 -1196 -1477 -131 -329 -219 -776
-219 -1119 l0 -98 -352 0 -351 0 6 183 c23 659 180 1225 495 1782 184 326 503
728 734 922 l78 66 -3 3486 -3 3486 -21 125 c-34 195 -50 266 -94 395 -79 231
-184 420 -364 650 -43 55 -81 102 -84 105 -3 3 -45 50 -92 105 -95 111 -169
209 -251 333 l-55 82 -45 -67z M709 8578 c-2 -461 2 -539 42 -848 56 -431 163
-845 326 -1260 128 -324 409 -837 593 -1080 15 -19 46 -62 70 -95 232 -316
602 -698 935 -964 354 -283 588 -440 985 -658 100 -55 336 -173 346 -173 14 0
18 505 5 665 -39 473 -135 838 -321 1223 -261 538 -536 861 -1160 1362 -122
98 -327 264 -490 399 -436 359 -795 731 -1024 1059 -71 102 -199 308 -248 400
-27 50 -52 92 -54 92 -2 0 -4 -55 -5 -122z M10632 8642 c-67 -134 -230 -391
-351 -552 -136 -181 -200 -253 -441 -492 -245 -243 -382 -362 -805 -703 -395
-318 -560 -459 -690 -590 -394 -394 -674 -858 -839 -1390 -79 -256 -132 -573
-137 -815 0 -47 -1 -206 0 -354 1 -213 4 -266 14 -259 6 6 89 50 182 98 624
321 1162 710 1606 1162 311 316 551 624 780 1003 446 740 686 1564 719 2470 8
233 4 470 -9 470 -3 0 -17 -22 -29 -48z"/>
</g>
</svg>
